<svg id="Calque_1" data-name="Calque 1" xmlns="http://www.w3.org/2000/svg" viewBox="0 0 26.38 28.59"><defs><style>.cls-1{fill:#fff;}</style></defs><path class="cls-1" d="M287.94,589.47c.09,0,.29,0,.24,0l-.33,0Z" transform="translate(-276.9 -566.63)"/><path class="cls-1" d="M288.54,589.19a1.86,1.86,0,0,0-.75,0c.32,0,.19,0,.57,0,0,0-.1.08-.22.07.08,0-.07.07.14.08s.25-.14,0-.19A.83.83,0,0,1,288.54,589.19Z" transform="translate(-276.9 -566.63)"/><path class="cls-1" d="M286.43,585.49v0A.07.07,0,0,0,286.43,585.49Z" transform="translate(-276.9 -566.63)"/><path class="cls-1" d="M283.74,584.59a.08.08,0,0,0,0-.07S283.73,584.56,283.74,584.59Z" transform="translate(-276.9 -566.63)"/><path class="cls-1" d="M283.24,584.22l0,0S283.24,584.19,283.24,584.22Z" transform="translate(-276.9 -566.63)"/><path class="cls-1" d="M286.43,585.49l0-.13C286.36,585.46,286.41,585.45,286.43,585.49Z" transform="translate(-276.9 -566.63)"/><path class="cls-1" d="M287.68,588.82h0Z" transform="translate(-276.9 -566.63)"/><path class="cls-1" d="M287.65,586l0,0,.1-.09Z" transform="translate(-276.9 -566.63)"/><path class="cls-1" d="M288.4,586.7s-.23.14-.33.21a.44.44,0,0,1,.18-.08Z" transform="translate(-276.9 -566.63)"/><path class="cls-1" d="M288.72,588.33l0,0Z" transform="translate(-276.9 -566.63)"/><path class="cls-1" d="M287.1,585.5l0-.09A.41.41,0,0,0,287.1,585.5Z" transform="translate(-276.9 -566.63)"/><path class="cls-1" d="M287.19,590.11h0Z" transform="translate(-276.9 -566.63)"/><polygon class="cls-1" points="11.78 22.85 11.8 22.86 11.96 22.86 11.78 22.85"/><path class="cls-1" d="M282.24,583.94h0S282.25,583.92,282.24,583.94Z" transform="translate(-276.9 -566.63)"/><path class="cls-1" d="M277.21,590.8c.21-.17.36.07.58-.16C277.69,590.69,277.32,590.62,277.21,590.8Z" transform="translate(-276.9 -566.63)"/><path class="cls-1" d="M287.71,588.79l0,0S287.69,588.79,287.71,588.79Z" transform="translate(-276.9 -566.63)"/><polygon class="cls-1" points="0.89 24.01 0.89 24.01 0.91 23.99 0.89 24.01"/><path class="cls-1" d="M280.11,584.79l.08.1Z" transform="translate(-276.9 -566.63)"/><path class="cls-1" d="M281.79,584.6l-.05,0A.05.05,0,0,0,281.79,584.6Z" transform="translate(-276.9 -566.63)"/><path class="cls-1" d="M279.57,585.56s-.06,0-.07,0l0,0S279.52,585.54,279.57,585.56Z" transform="translate(-276.9 -566.63)"/><path class="cls-1" d="M278.88,586.12l.05,0v0Z" transform="translate(-276.9 -566.63)"/><path class="cls-1" d="M286.42,591.49l.18.17C286.46,591.51,286.48,591.4,286.42,591.49Z" transform="translate(-276.9 -566.63)"/><path class="cls-1" d="M287.83,588.78c-.07,0-.11,0-.12,0l0,0Z" transform="translate(-276.9 -566.63)"/><path class="cls-1" d="M280.81,587.4l-.1,0A.12.12,0,0,0,280.81,587.4Z" transform="translate(-276.9 -566.63)"/><path class="cls-1" d="M282.31,592.46l0,0S282.32,592.43,282.31,592.46Z" transform="translate(-276.9 -566.63)"/><path class="cls-1" d="M280.54,587.61l-.17-.11,0,.06Z" transform="translate(-276.9 -566.63)"/><path class="cls-1" d="M286.6,591.66Z" transform="translate(-276.9 -566.63)"/><path class="cls-1" d="M286.52,590.79c0,.05.26.26.41.4s-.24-.14-.4-.24c0,.11.25.38.21.4a.6.6,0,0,1-.12-.11c.17.26-.13.15.05.48l-.07-.06c.14.13.26.27.35.37s.09.24-.08.06c0,0,0-.09-.08-.15l0,.11c-.26-.24,0-.13-.2-.33,0,.15.11.44,0,.4-.21-.26.06-.18-.2-.37l.16,0c-.39-.36.07,0-.34-.41-.16,0,0,.22-.16.22.09.17.17.22.25.39,0,.4-.59-.63-.45-.18.09.21.29.59.09.44l-.16-.35c-.12,0,.2.52-.05.36,0-.15,0-.16,0-.19-.22-.23,0,.22,0,.25l-.16-.3c-.09.11-.14.4-.27.51a.65.65,0,0,0-.11-.29c-.11.24-.41.09-.62,0v.29s-.06-.12-.05-.18,0,.18,0,.3-.09-.15-.08-.24c-.06.27-.28.6-.46.3l0-.09c-.11-.11-.06.62-.19.35v0c-.24-.12-.51.16-.68-.29-.06.41-.21-.2-.28.38-.11-.31-.06-.41-.21-.62,0,0-.13.36-.2.4l0-.3-.14.3,0-.37-.07.07a.43.43,0,0,1,0,.23c-.12.11-.18-.26-.14-.41l-.26.2a.64.64,0,0,1,.13-.22c-.19.27.07-.32-.1-.07a1.55,1.55,0,0,1-.08.23c0-.19-.11-.22-.21-.18l.09-.19c-.11-.11-.33,0-.47-.1,0,.12-.16.45-.22.45l.12-.3c-.12.17,0,.14-.17.33,0-.07.12-.35.2-.43l-.12.07c0-.09.08-.13.14-.24-.12.17.05-.34-.16-.06l.05-.08c-.13-.09-.26,0-.37-.09-.16.23-.17.15-.33.31,0-.14,0-.37-.08-.43s-.18.16-.32.26c.17-.2.06-.26.23-.35a.65.65,0,0,0-.43-.08,1,1,0,0,1-.16.18c-.06,0,0-.13.12-.21h0c-.21,0-.14-.17-.06-.35s.17-.33-.1-.26h0a1.71,1.71,0,0,1-.32,0c0-.08.19,0,.32-.16-.47,0-.05-.25-.35-.28.34-.16.31-.22.25-.29s-.16-.16.08-.25l-.17,0c-.18,0,.1,0,.13-.07a1.29,1.29,0,0,1-.25,0c-.24-.31.28-.6.51-.76.07-.06-.85-.37-.39-.35l.28.16c-.27-.36.19-.38.06-.74.06,0,.14.11.12.13.22.11.11-.13,0-.26.05,0,.15.11.24.16s-.15-.3,0-.16a.28.28,0,0,1,.05.09c-.06-.11.12-.09-.1-.26.15,0,0-.21.21-.14-.16-.27.21,0-.05-.34.28.36.36.2.28,0,.07.13.13.09.21.26.05,0,.06-.15-.08-.34.39.4,0-.51.41.06a1.47,1.47,0,0,1,.33-.71c.16.42-.19.12,0,.55.08-.23,0-.65.27-.59.07,0,0,.19,0,.27.13-.23.34-.07.45-.34a.56.56,0,0,1,0,.13s.08.05,0-.15l0,.06a1.91,1.91,0,0,1,0-.79c.05.59.2.11.23.86a.51.51,0,0,0,0-.28s.06.11.06.27c.09-.12,0-.33.13-.34a1,1,0,0,1,0,.25c0-.19.07-.39.17-.32s0,.13,0,.13c.15,0,.25-.52.44-.35,0,.43.07.14.08.51l.09-.11,0-.18c.08,0,.16-.26.23-.13l-.07.15.17-.07-.09-.14c.1-.19,0-.48.13-.37s.1,0,.12.23h0c.06-.12.12-.24.17-.14s-.05.41-.05.49c.07-.3.2-.06.31-.38a1.39,1.39,0,0,0-.06.31l.07-.25a.44.44,0,0,1,0,.28c.11.07,0-.47.15-.24,0,0,0,0-.05.09.12.13.31-.11.42,0-.06.37-.14.06-.17.38.18,0,.49-.33.64-.18V586c.2-.49,0,.29.21.09a.81.81,0,0,0-.11.21c.08.12.28,0,.53-.08l-.09.11c0,.14.15.14.18.24.09-.11.12-.06.19-.25-.2.77.65-.08.44.58,0,0-.12.06-.1.07l.21,0a.85.85,0,0,0,.16-.29c.11-.09.22-.13.26-.1-.17.06-.24.28-.31.4a1.14,1.14,0,0,0,.15-.16c-.2.37.33-.33.25,0l-.09.08c.08,0,.23-.08.24,0-.17.21-.12.05-.28.2.06,0,.47-.23.33,0-.08,0-.12,0-.19,0-.18.27-.12.22-.12.29h0l0,.18.05-.08c.6-.36.21.07.66-.09-.43.14-.22.13-.47.29-.05.08-.1.17-.18.2.24-.09-.12.18.22.05-.08.06,0,.06-.19.17.1,0,.14-.1.24-.16.36-.06-.23.41.24.35.24.05.55,0,.75.06a.55.55,0,0,1-.35.07c-.11.12-.07.16.06.2a.69.69,0,0,0-.25.09s.35-.05.23.06l-.39,0a3.3,3.3,0,0,1,.38.12,1.14,1.14,0,0,1-.37,0,.66.66,0,0,0,.46.14l.08-.06s-.22.05-.28,0c-.22,0,.08-.1.17-.12l.07,0c.56-.15-.12-.2-.11-.29l.41-.06h-.36c.1-.05.31-.14.39-.1.17-.13-.16,0,0-.16a.11.11,0,0,1,.07,0l-.15,0c.09,0,.28-.11.24,0,.18-.23-.37-.12-.11-.29h0c-.21-.14-.29.09-.67.11l.63-.42-.28.12s0-.08.12-.12c-.23,0-.11.07-.31.12.19-.22-.25-.16.16-.44-.22.1-.11.18-.3.17.43-.3-.13,0,0-.26s.18,0,.32-.19c-.41.22,0-.21-.16-.23-.29.22-.22-.05-.41-.06.09-.07,0-.33,0-.51l.05,0c-.28.24-.32.11-.45.1a.78.78,0,0,1,.33-.25l-.07-.06c-.1.07-.16.1-.23.09l.19-.19c-.1-.08-.39.1-.41-.14-.15.2-.33.64-.54.69a1.22,1.22,0,0,1,.27-.33s-.1.07-.09,0L287,586c0-.13-.14.14-.17.09s.05-.14.15-.27,0,.1.05.05a.49.49,0,0,1,0-.35c-.06.1-.14.22-.2.22s.1-.22.09-.34c-.1.1-.09-.07-.25.19,0,0,0-.14.07-.22-.12.07-.28-.11-.37.2v0h0c-.31.18-.29-.34-.53-.29l0-.1c-.15.07-.27,0-.42.14,0,0,0-.19,0-.3-.11,0-.15.15-.22,0,.13-.14,0-.15.12-.09-.09-.12-.07-.28-.27,0,.11-.23,0-.34-.08-.28l0,.2a.2.2,0,0,1-.18,0l.11-.32c-.18-.45-.57.58-.65-.1-.1.22.11.17,0,.44-.1-.06-.16-.55-.2-.56-.15-.2-.2.46-.35.33,0,.12,0,.44-.11.54s-.11-.5,0-.59,0,0,0,.07a.2.2,0,0,0,.06-.22l0,.12c-.05-.13-.21-.12-.16-.31a.16.16,0,0,0,0,.25c-.14-.17-.23,0-.38-.12,0,.06.05.2,0,.2-.22-.14-.09.23-.23.29-.09-.18,0-.44-.13-.28-.11-.12-.05-.31,0-.41-.13.23-.28-.13-.38-.16l.07-.11a.11.11,0,0,1-.12.07l.07.23c-.05,0-.09,0-.1-.13,0,.16.08.39,0,.61-.07-.11-.15.15-.22-.15.2.08-.06-.32.09-.39,0,0-.07,0-.12,0a.11.11,0,0,1,0-.08c-.23-.26,0,.36-.21.39,0-.18-.11-.32-.13-.28s.09.28.05.43c-.14-.11-.1.13-.16.12l.08,0c0,.18,0,.17-.1.24,0-.13,0-.11,0-.16,0,.32-.27-.27-.34,0-.09-.1-.1-.32-.17-.38-.07.26-.23-.19-.32,0,.12.22.11.15.09.41a1.81,1.81,0,0,1,.18-.23l0,.37c.06,0,.09-.18.15-.16,0,.21,0,.15.07.33-.2-.31-.11.25-.29.06l-.2-.56c-.27-.17-.19.4-.45.35l.11.07c.07.22-.11.09-.14.21a.88.88,0,0,0-.23-.32c.07.12-.17.06,0,.42l-.21-.18c-.22,0,.1.59-.07.62-.07-.21-.22-.28-.2-.48,0,0-.11,0,0,.15-.1-.09,0,.3-.14.18,0,.09.14.26.08.29l-.05-.08c.05.08,0,.16.17.31-.52-.4-.33.32-.8,0a2.4,2.4,0,0,1-.17.39s-.08-.07-.05-.07c-.24,0,.36.45.09.44s-.07-.18-.2-.22c-.52-.39-.06.23-.44.11v0c-.24,0,.05.33-.06.44l-.08-.05a1.07,1.07,0,0,1,.25.65c-.21-.15-.1-.12-.34-.21,0,.08.38.17.4.31a2,2,0,0,1-.56-.08l0-.12c-.35-.09-.06.16-.14.2l-.14-.07c0,.22.35.35.26.53h.12c.34.21-.24,0,0,.21l-.39-.05a3.32,3.32,0,0,1,.38.46,1.47,1.47,0,0,1-.55-.43.28.28,0,0,0,.17.34s-.12-.09-.06-.11c.29.15.42.27.41.41-.76-.08-.22.36-.79.5.29.26-.06.59.06.94.55-.26,0,.09.63-.09.06.05.05.08,0,.1a3,3,0,0,0-.28.33c-.15.11-.15,0-.28,0s-.22.16-.33.33c.19-.1.31-.05.28.08l.2-.24c.4.09-.38.4,0,.5h-.21c.15.07.24.44.71.28,0,.06-.17.17-.24.15.12.31.8.23.71.57l-.12.09c.07,0,.27-.12.2,0s-.12.08-.11.11.29-.08.27,0l-.16.07c.07.34.6,0,.82,0a.63.63,0,0,0-.14.71l0,.05c.25.25.68,0,1,0-.06.5.45.45.63.79a.55.55,0,0,1,.19-.34c0,.11.27-.22.13.15h0c-.08.39.1.33.2.37l.17-.5c.07.84.75-.11.77.6.09-.12.17-.11.25-.23l0,.28a.62.62,0,0,0,.52.09l-.06.2c.14,0,.21-.81.32-.82l0,.42c.22,0,.47.36.68,0,0,.07,0,.19,0,.21.11,0,.46.25.35-.33.05.38.25,0,.33-.17l0,.28c.05-.36,0-.46.15-.59,0,0,.07.22,0,.16.14.12,0-.28.19-.16v.18c.11,0,.08-.09.1-.31s.21,0,.3.26c0-.15,0-.37.06-.32a.49.49,0,0,1,0,.19c.24.12.17-.38.38-.17a.43.43,0,0,0,.07.14c-.14.06-.27.07-.26.05.08.24.22.25.23.62,0-.22.06-.68.22-.61l0,.08v0s.05,0,.06-.07a.18.18,0,0,0,.13,0c.09.19.18.05.24,0-.12-.26,0-.25-.19-.43,0,0,0,0,0,.06a.06.06,0,0,0,0,0v0l-.13.07c0-.15,0-.27.11-.16l-.12-.45c.24.32.48.44.61.64.11-.21.36-.32.18-.82,0-.09.13.09.19.15s0,.07,0,.15c0-.17.24-.23,0-.54.2.06.14.32.25.16l0,.11c.33.12.31-.17.28-.43s-.06-.49.34-.38a.21.21,0,0,1-.12-.05c.28,0,.37-.29.46-.51s.18-.43.52-.51c.16-.08-.05-.2-.18-.34l.29.09-.27-.25c-.19-.24.81-.09.42-.47h-.21c.06-.08-.07-.29.16-.24,0,0-.2-.06-.09-.07l.16,0a2.83,2.83,0,0,0-.24-.25c.12-.15.62.1.67-.17a.81.81,0,0,0-.55-.24s-.11.09-.27.08l-.07-.07a4,4,0,0,0-1.28.06l.28.1-.23,0v-.07c-.21,0,0,.06.1.1a.88.88,0,0,0-.25,0l.44.13c-.19,0-.35-.08-.47,0,.2.07.42,0,.54.11-.22,0-.39,0-.22,0a.74.74,0,0,1-.24-.06c.13.06,0,.11.28.19-.26,0,0,.17-.4,0,.1,0,.31.17.31.22-.47-.24-.08.14-.6-.09.41.22.13.24.31.44,0,0-.09-.06-.06-.06s-.2,0-.29,0a2.05,2.05,0,0,1,.54.49c-.35-.14-.36-.28-.68-.46.27.17.21.27.44.4a1.59,1.59,0,0,1-.41-.19c.39.29,0,.08.26.3-.24-.09-.38-.27-.31-.11A.75.75,0,0,1,286.52,590.79Zm-1.18,1.83h0l0,0Zm-.19.07a.14.14,0,0,0,.09,0c0,.08.06.18,0,.18S285.21,592.77,285.15,592.69Zm1.17,1.64s-.06,0-.09,0l.06-.06v0A.93.93,0,0,1,286.32,594.33Z" transform="translate(-276.9 -566.63)"/><path class="cls-1" d="M286.24,594s0,0,0,0l-.05-.05,0,.09Z" transform="translate(-276.9 -566.63)"/><path class="cls-1" d="M286.44,585.55h0a.08.08,0,0,1,0,0Z" transform="translate(-276.9 -566.63)"/><polygon class="cls-1" points="5.63 25.74 5.62 25.81 5.65 25.76 5.63 25.74"/><path class="cls-1" d="M286.89,587a.15.15,0,0,0,0,.07Z" transform="translate(-276.9 -566.63)"/><path class="cls-1" d="M287.18,587.41l0,.11A.36.36,0,0,0,287.18,587.41Z" transform="translate(-276.9 -566.63)"/><path class="cls-1" d="M287.29,587.77l.1-.07h0Z" transform="translate(-276.9 -566.63)"/><path class="cls-1" d="M282.24,586.43v0C282.21,586.51,282.22,586.48,282.24,586.43Z" transform="translate(-276.9 -566.63)"/><path class="cls-1" d="M283.9,585.67a.47.47,0,0,1-.07.12S283.89,585.82,283.9,585.67Z" transform="translate(-276.9 -566.63)"/><polygon class="cls-1" points="3.92 20.77 3.92 20.77 3.91 20.78 3.92 20.77"/><path class="cls-1" d="M283.75,585.79c0,.05.06,0,.08,0S283.78,585.74,283.75,585.79Z" transform="translate(-276.9 -566.63)"/><path class="cls-1" d="M287.7,589.09v0h.05Z" transform="translate(-276.9 -566.63)"/><path class="cls-1" d="M287.74,589.11h0S287.77,589.1,287.74,589.11Z" transform="translate(-276.9 -566.63)"/><path class="cls-1" d="M287.85,589.15l-.08,0S287.77,589.15,287.85,589.15Z" transform="translate(-276.9 -566.63)"/><path class="cls-1" d="M287.73,588.66l-.1,0Z" transform="translate(-276.9 -566.63)"/><path class="cls-1" d="M287.67,588.54s-.19.14-.11.16l.07,0C287.48,588.71,287.84,588.51,287.67,588.54Z" transform="translate(-276.9 -566.63)"/><path class="cls-1" d="M288.52,587.41v.17c.08-.07.19-.17.25-.12C289,587.12,288.59,587.61,288.52,587.41Z" transform="translate(-276.9 -566.63)"/><path class="cls-1" d="M288.38,586.91c.09,0,.13-.09.18-.12C288.45,586.8,288.42,586.81,288.38,586.91Z" transform="translate(-276.9 -566.63)"/><path class="cls-1" d="M285.55,584.92l.09-.24C285.57,584.7,285.61,584.78,285.55,584.92Z" transform="translate(-276.9 -566.63)"/><polygon class="cls-1" points="7.73 19.41 7.74 19.58 7.82 19.36 7.73 19.41"/><polygon class="cls-1" points="7.72 17.55 7.75 17.52 7.63 17.6 7.72 17.55"/><path class="cls-1" d="M278.83,585.83l.23.22C279.05,586,278.83,585.71,278.83,585.83Z" transform="translate(-276.9 -566.63)"/><path class="cls-1" d="M277.62,588.28c-.16,0-.28,0-.15.12S277.65,588.32,277.62,588.28Z" transform="translate(-276.9 -566.63)"/><polygon class="cls-1" points="4.51 28.08 4.42 28.16 4.55 28.11 4.51 28.08"/><path class="cls-1" d="M288.61,574.4c0,.08,0,.28.07.24l.05-.33Z" transform="translate(-276.9 -566.63)"/><path class="cls-1" d="M289.14,575a1.13,1.13,0,0,0,.14-.75c-.09.32-.11.19-.21.57-.08,0-.14-.11-.13-.23,0,.08-.12-.07-.16.13s.23.27.37.06A.41.41,0,0,1,289.14,575Z" transform="translate(-276.9 -566.63)"/><path class="cls-1" d="M296.86,575.52l-.05,0A.05.05,0,0,0,296.86,575.52Z" transform="translate(-276.9 -566.63)"/><path class="cls-1" d="M302.22,575.71s0,0,0,.07S302.26,575.73,302.22,575.71Z" transform="translate(-276.9 -566.63)"/><path class="cls-1" d="M302.8,575l0,.07S302.83,575,302.8,575Z" transform="translate(-276.9 -566.63)"/><path class="cls-1" d="M296.86,575.52l.12.11C297,575.52,296.92,575.55,296.86,575.52Z" transform="translate(-276.9 -566.63)"/><path class="cls-1" d="M290.2,574.21l-.06.09.06,0Z" transform="translate(-276.9 -566.63)"/><path class="cls-1" d="M294.75,575.79h0l0,.14Z" transform="translate(-276.9 -566.63)"/><path class="cls-1" d="M293.13,575.84s.05-.27.06-.39c0,.12,0,.17-.08.19A1.68,1.68,0,0,0,293.13,575.84Z" transform="translate(-276.9 -566.63)"/><path class="cls-1" d="M290.57,575.35l-.05,0Z" transform="translate(-276.9 -566.63)"/><path class="cls-1" d="M295.91,575.85a.25.25,0,0,0,0,.1A.38.38,0,0,0,295.91,575.85Z" transform="translate(-276.9 -566.63)"/><path class="cls-1" d="M289.93,587.6h0Z" transform="translate(-276.9 -566.63)"/><polygon class="cls-1" points="11.64 22.85 11.62 22.82 11.47 22.82 11.64 22.85"/><path class="cls-1" d="M303.16,572.9h0S303.18,572.93,303.16,572.9Z" transform="translate(-276.9 -566.63)"/><path class="cls-1" d="M292.74,567.08c.15.25-.26.32,0,.6C292.7,567.57,292.93,567.24,292.74,567.08Z" transform="translate(-276.9 -566.63)"/><path class="cls-1" d="M290.25,574.25h.06A.06.06,0,0,0,290.25,574.25Z" transform="translate(-276.9 -566.63)"/><path class="cls-1" d="M292.72,567.68h0l0,0Z" transform="translate(-276.9 -566.63)"/><path class="cls-1" d="M303,569.17a.27.27,0,0,0-.12.09A.32.32,0,0,0,303,569.17Z" transform="translate(-276.9 -566.63)"/><path class="cls-1" d="M302.59,572l0-.07S302.59,572,302.59,572Z" transform="translate(-276.9 -566.63)"/><path class="cls-1" d="M302.43,567.44s0-.06-.12,0a0,0,0,0,0,0,0C302.36,567.41,302.41,567.4,302.43,567.44Z" transform="translate(-276.9 -566.63)"/><path class="cls-1" d="M300.35,567.44l0,.06.07,0Z" transform="translate(-276.9 -566.63)"/><path class="cls-1" d="M289.79,583.39a1,1,0,0,1-.25.06C289.74,583.43,289.81,583.63,289.79,583.39Z" transform="translate(-276.9 -566.63)"/><path class="cls-1" d="M290.21,574.37c0-.07,0-.11,0-.12h-.05A.37.37,0,0,0,290.21,574.37Z" transform="translate(-276.9 -566.63)"/><path class="cls-1" d="M300.36,569.66v0S300.35,569.66,300.36,569.66Z" transform="translate(-276.9 -566.63)"/><path class="cls-1" d="M289.75,573.45l0,0S289.79,573.46,289.75,573.45Z" transform="translate(-276.9 -566.63)"/><path class="cls-1" d="M300.25,569.66a.62.62,0,0,0,0-.2l0,.08S300.25,569.62,300.25,569.66Z" transform="translate(-276.9 -566.63)"/><path class="cls-1" d="M289.54,583.45Z" transform="translate(-276.9 -566.63)"/><path class="cls-1" d="M290.21,584.9c0-.21-.37-.1-.58-.14-.1-.25.27-.12.46-.2-.09-.16-.43-.28-.42-.4s.08,0,.16,0c-.29-.17,0-.49-.38-.68l.09,0a2.34,2.34,0,0,1-.51,0c0-.09-.23-.17,0-.21,0,.06.09.06.17.09l-.11-.1c.35-.09.12.14.38.14-.12-.2-.4-.42-.3-.57.33,0,.11.35.41.15l-.13.23c.54-.17,0,.14.54,0,.1-.3-.18-.34-.08-.64-.19-.06-.28,0-.46,0-.34-.43.85-.34.4-.65-.23-.08-.66-.11-.43-.33l.38.07c0-.29-.55-.16-.29-.47.15.06.13.23.17.19.3-.2-.22-.14-.22-.29l.34,0c-.05-.3-.3-.64-.36-1,.1,0,.21.08.31,0a1.76,1.76,0,0,1,.25-1.34l-.3-.16a.18.18,0,0,1,.19,0c.11-.16-.18,0-.3-.08s.17-.12.26-.06c-.25-.29-.54-.82-.22-1.12l.08.06c.12-.24-.6-.27-.32-.49l.05.05c.13-.51-.14-1.08.3-1.47-.42-.07.19-.5-.4-.53.29-.3.4-.21.59-.62,0-.11-.37-.17-.43-.3h.31l-.32-.19.37-.1-.08-.12a.29.29,0,0,1-.23.1c-.14-.2.22-.49.37-.49l-.26-.47c.13,0,.17.09.25.15-.32-.25.32,0,0-.27-.07,0-.18,0-.24,0a.45.45,0,0,0,.11-.56l.21,0a9.11,9.11,0,0,0-.1-1.12c-.1.14-.46.11-.5,0l.33,0c-.21-.08-.13.12-.37,0,0-.14.37-.09.47,0l-.11-.18a1.47,1.47,0,0,1,.27,0c-.2-.07.33-.3,0-.41h.09c0-.19,0-.37,0-.34a.12.12,0,0,1-.07-.07,1.31,1.31,0,0,1-.45-.25c.09-.07.31,0,.29-.06l-.06-.07c-.07-.11-.19-.21-.3-.35.26.25.32.23.43.42.07-.05.05-.06.14-.26a.89.89,0,0,1-.12-.24s.13.11.15.23v0c0-.1.09-.1.15-.06s.25.13.37.22.52.31.71,0l0,0,.39-.27c.18,0-.11.19,0,.35.42-.43.67.06,1-.23.28.76,1,0,1.34.43l0-.17c.09-.18.11.1.18.14,0-.14-.1-.16,0-.26a6,6,0,0,1,2.49.42c.3,0,.17-.92.55-.49l-.11.33c.61-.4,1.25,0,1.84-.33,0,.08,0,.18-.09.18.13.24.47,0,.47-.19.09,0,0,.18.08.28s.31-.31.38-.07c0,0,0,.08-.06.1s.39,0,.31-.25a.23.23,0,0,0,.15,0s0,0,.05,0,.06,0,.06,0c.15-.31,0,.15.26-.29-.23.46-.14.37.1.16-.13.13-.1.14-.28.33l.05,0s.13-.1.29-.25c-.27.29-.16.2-.07.19s.16,0-.19.17a.39.39,0,0,1,.31.12c.08.2.15.43.21.64-.46,0,0-.47-.52-.46.18.41.57.65.46,1.06-.06.1-.19-.06-.27-.1.18.41,0,.79.2,1.16,0,0-.08,0-.12-.08s-.07.17.14.16l-.06-.07c.3-.12.63.28.78.3-.58-.13-.15.35-.89.16a.33.33,0,0,0,.28.1c0,.07-.12.09-.28,0,.11.26.33.16.32.4-.1,0-.13,0-.25-.07.19.1.39.26.3.4s-.13,0-.13,0,.51.45.33.63c-.44-.32-.15,0-.52-.25l.11.15.18.11c0,.06.17.29.18.38l-.09,0-.05-.11-.05-.07v0l-.1.06.24.15c0,.19.44.47.16.36,0,0-.17,0-.38-.22h0c0,.12,0,.24-.16.15s-.17-.41-.22-.49c.08.31-.19.08-.21.42a1.45,1.45,0,0,0,0-.32,2.28,2.28,0,0,1,0,.26c-.07-.09-.07-.12-.07-.28-.17,0,.09.47-.17.27,0,0,0-.06.05-.1-.29-.1-.56.16-.82,0-.08-.38.23-.09.14-.41-.38.07-.79.45-1.17.36l.07,0c-.05.53-.27-.26-.46,0a.6.6,0,0,0,.05-.24c-.26-.08-.53.14-.91.3l.05-.13c-.15-.13-.4-.07-.56-.14-.05.14-.14.12-.09.32-.5-.78-1,.41-1.39-.23.05,0,.12-.12.08-.12l-.38.12c0,.23,0,.14.13.32a.3.3,0,0,1-.25.24c.17-.15,0-.37-.07-.5a1.62,1.62,0,0,1,0,.22c-.19-.41,0,.47-.3.19l0-.12c-.11.06-.2.22-.31.19,0-.27.11-.13.12-.35-.16,0-.3.51-.44.24.06-.07.16-.07.22-.15-.15-.31-.17-.23-.28-.28h0l-.26-.14.07.08c-.19.7-.39.13-.65.58.25-.43,0-.25.06-.55-.06-.08-.16-.18-.13-.26-.13.24-.21-.19-.38.16,0-.09-.13,0-.1-.25-.16.08,0,.17,0,.29-.24.33-.57-.4-.92,0-.3.19-.36.52-.64.68-.1-.15.08-.35.08-.35a.28.28,0,0,0-.42,0c0-.08,0-.15,0-.26s-.08.35-.23.21a1.94,1.94,0,0,1,.12-.39c-.14.09-.28.27-.42.36,0-.17.09-.26.14-.37-.16.07-.41.15-.46.42l.1.1c-.06,0,0-.23,0-.28.14-.21.2.09.21.19l-.1.06c.1.57.4-.09.6-.06l-.08.42.2-.35c.05.11.08.34,0,.41.14.2.13-.15.25.08a.06.06,0,0,1,0,.07l.14-.12c0,.08,0,.29-.06.23.25.24.4-.31.5,0l0,0c.35-.14,0-.31.3-.67l.18.76,0-.31s.11,0,.1.16c.13-.21,0-.13.05-.33.18.28.48-.13.52.35.07-.23-.16-.17,0-.34.06.53.22-.09.38.15,0,.27-.2.13,0,.37.1-.45.31.1.44,0,0-.36.3-.15.52-.27,0,.12.43.2.64.33v.06c0-.36.25-.29.41-.37a.52.52,0,0,1-.12.41h.15a.29.29,0,0,1,.18-.22l0,.28c.2,0,.4-.33.65-.14,0-.26-.2-.72.07-.89,0,.14,0,.38-.05.43s.08-.11.13,0l-.11.23c.12.1.06-.19.15-.17,0,.2.07.14.06.3s-.08-.09-.12,0a.49.49,0,0,1,.28.3c0-.11,0-.26.07-.29s.07.24.19.34c0-.14.17,0,.17-.29.06,0,.07.14.09.22.11-.13.48,0,.37-.35l0,0h0c.33-.3.7.16,1,0v.09c.2-.11.44-.06.58-.27.06,0,.14.18.12.29.15-.07.17-.18.39,0-.16.17,0,.15-.16.13.2.08.24.24.45,0-.07.25.15.32.25.24l-.14-.18a.57.57,0,0,1,.29,0l-.05.33c.2.21.38,0,.55-.11a.49.49,0,0,1,.74.1c.1-.23-.37-.16-.28-.43.24,0,.72.52.83.52.54.18.12-.49.57-.36-.14-.12-.39-.44-.26-.55.23,0,.75.5.66.59a.16.16,0,0,1-.15-.06s-.13.09.09.22l-.06-.12a3.1,3.1,0,0,0,.52.15s.08,0,.15.09c-.11-.35-.19-.27-.26-.19.19-.2,0-.57.13-.87-.07,0-.21,0-.21-.07.15-.46-.22-.37-.27-.71.18-.12.43.23.28-.18.12-.2.31,0,.41.16a.55.55,0,0,1,0-.54l.2-.35a.38.38,0,0,1,.1.15.41.41,0,0,1-.06-.22l-.23.06c0-.07,0-.12.14-.12-.16-.07-.4,0-.61-.09.12-.09-.13-.28.18-.31-.1.29.32,0,.37.21,0,0,0-.1,0-.17a.11.11,0,0,1,.08,0c.28-.27-.36-.12-.35-.41.18,0,.34-.07.3-.11s-.3,0-.43-.06c.14-.18-.1-.2-.09-.29l-.06.11c-.18,0-.16-.13-.21-.26.13,0,.09.12.15.07-.31-.14.33-.32.12-.52.12-.09.33,0,.41-.09-.23-.23.24-.24.05-.48-.24.07-.18.08-.41-.08l.17.38-.35-.25c0,.12.15.25.11.32-.19-.12-.13-.11-.33-.05.36-.16-.21-.32,0-.5h.59c.26-.28-.3-.47-.15-.86a.75.75,0,0,1-.11.13c-.23,0,0-.29-.12-.45.19,0,.27-.13.39-.24-.15,0,0-.46-.38-.34l.26-.36c.1-.55-.57-.15-.5-.54.22-.07.36-.38.51-.22,0-.15,0-.31-.1-.19.06-.1,0-.14-.05-.18s-.33.12-.31,0c-.14.09-.33.29-.45.28a.32.32,0,0,1,.07-.1c-.08.1-.31.13-.36.35.06-.31-.25-.29-.51-.27s-.51,0-.67-.21l-.39.09a1.18,1.18,0,0,1-.31,0c0-.06,0-.1,0-.08-.25-.18-.16.57-.45.37-.14-.32.16-.18.06-.3,0-.65-.34.09-.54-.29l0,0c-.15-.22-.37.25-.61.2a.24.24,0,0,0,0-.09,1.18,1.18,0,0,1-.71.53c.07-.26.1-.14.06-.39-.11,0,0,.41-.18.48a1.14,1.14,0,0,1-.24-.53l.2,0c-.1-.36-.26,0-.36-.05v-.15c-.3.05-.31.44-.63.41l0,.12c-.18.39-.15-.22-.33.07l-.05-.4a2.56,2.56,0,0,1-.62.46,2.17,2.17,0,0,1,.52-.62c-.12,0-.4,0-.46.23,0,0,.11-.14.15-.08-.14.31-.33.47-.56.46,0-.76-.61-.19-.77-.79-.41.29-.82-.12-1.3-.07.17.59-.14,0-.11.63-.11,0-.15,0-.16,0l-.34-.37c-.08-.18.11-.13.1-.27-.25,0-.1-.26-.27-.42,0,.22-.08.31-.22.23l.2.28c-.35.32-.3-.51-.64-.19l.11-.19c-.18.11-.65,0-.83.48,0-.07-.07-.24,0-.28-.23,0-.41.09-.71.2a1.36,1.36,0,0,1-1,0V567c-.13,0-.11.28-.34.13,0-.06,0-.15-.1-.16s-.19.27-.42.18l0-.17c-.45-.1-.67,0-.77.16a9.41,9.41,0,0,1,.35,1c-.44-.34-.59.15-.66.42l-.06,0a3.19,3.19,0,0,0,.18,1.22c.12.28.27.41.36.65-.48.28-.2.93-.47,1.38.08-.07.34,0,.39.09s.3.28-.1.27v0c-.4.08-.29.29-.3.46l.52,0c-.76.44.29,1.15-.4,1.38.13.11.13.24.26.34h-.28a1.38,1.38,0,0,0,0,.79l-.21-.07c0,.2.82.26.84.44l-.43.06c0,.35-.36.71,0,1.06-.06,0-.18,0-.2-.07,0,.17-.28.64.3.58-.38,0,0,.37.13.56l-.28,0c.35.16.45.17.55.39,0,.05-.22.05-.15,0-.15.18.26.14.11.35l-.17-.08c0,.18.07.17.28.27s-.07.35-.33.38c.16,0,.36.12.29.23a.26.26,0,0,1-.18,0c-.19.31.32.46.05.67a.3.3,0,0,0-.17,0,1.47,1.47,0,0,1,0-.43c-.25,0-.3.2-.65,0,.19.16.61.43.49.62l-.09,0,0,0s0,.08,0,.12a.28.28,0,0,0-.07.16c-.22,0-.12.22-.13.32.28,0,.24.12.47,0,0,0,0,0,0-.08l0,0h0l0-.24c.14.08.26.16.11.27l.45.13c-.39.14-.6.4-.84.43.15.3.1.71.63.9.07.08-.15.09-.24.12s0-.1-.12-.13c.14.17.06.5.43.55-.17.21-.34-.13-.28.17l-.12,0c-.59.58.94.94.19,1.58a.21.21,0,0,1,.13-.07c-.34.73.31,1.51-.22,2.23-.11.21.13.23.31.35l-.3.05.35.21c.25.31-.74.53-.26.91l.2-.05c0,.14.12.44-.11.42,0,0,.21,0,.1.1H288l.28.34c-.12.27-.63,0-.66.35.06.14.46.4.56.35a.25.25,0,0,1,.26-.15l.08.13c.47,0,.94.12,1.27-.2l-.29-.22.23-.07v.18c.22-.1,0-.17-.1-.25a.45.45,0,0,0,.25-.09l-.45-.22c.19,0,.37.1.47-.05-.21-.1-.41.1-.55-.07.21-.11.39-.08.21-.2a.25.25,0,0,1,.24.06c-.14-.11-.06-.3-.3-.36.26-.11-.07-.37.37-.36-.11,0-.35-.2-.37-.3.53.19,0-.38.6-.33-.47-.14-.21-.51-.47-.75,0,0,.11,0,.09.06,0-.14.18-.18.27-.27-.39,0-.48-.23-.72-.35.37-.16.46.11.82.05-.32,0-.32-.29-.58-.23a.81.81,0,0,1,.44-.18c-.49,0-.09-.12-.39-.23.24-.19.46-.05.31-.25C290,584.72,290.21,584.9,290.21,584.9Zm-.85-4.9h0l0,.1Zm0-.41a1,1,0,0,0,0,.18c-.09,0-.19,0-.19,0S289.27,579.65,289.35,579.59Zm-1.94.87c0-.06,0-.09.07-.09a.3.3,0,0,0,0,.11h0Z" transform="translate(-276.9 -566.63)"/><path class="cls-1" d="M287.78,580.58l0,0,.06,0-.09,0Z" transform="translate(-276.9 -566.63)"/><path class="cls-1" d="M296.8,575.48h0l0,0Z" transform="translate(-276.9 -566.63)"/><polygon class="cls-1" points="12.99 7.28 12.92 7.28 12.99 7.32 12.99 7.28"/><path class="cls-1" d="M294.53,574.51a.11.11,0,0,0,0-.07A.11.11,0,0,0,294.53,574.51Z" transform="translate(-276.9 -566.63)"/><path class="cls-1" d="M293.55,574.45l-.14-.1A.63.63,0,0,0,293.55,574.45Z" transform="translate(-276.9 -566.63)"/><path class="cls-1" d="M292.8,574.31c0,.05,0,.09,0,.12h0Z" transform="translate(-276.9 -566.63)"/><path class="cls-1" d="M300.71,572.08a0,0,0,0,0,0,0C300.64,572,300.66,572,300.71,572.08Z" transform="translate(-276.9 -566.63)"/><path class="cls-1" d="M300.94,574.64a.31.31,0,0,1,0-.13C300.87,574.48,300.84,574.48,300.94,574.64Z" transform="translate(-276.9 -566.63)"/><polygon class="cls-1" points="23.46 3.04 23.46 3.03 23.46 3.03 23.46 3.04"/><path class="cls-1" d="M301,574.51c-.09-.06-.11,0-.11,0S301,574.55,301,574.51Z" transform="translate(-276.9 -566.63)"/><path class="cls-1" d="M289.53,574.18h0a.07.07,0,0,1,0,.05Z" transform="translate(-276.9 -566.63)"/><path class="cls-1" d="M289.49,574.22l0,0S289.49,574.25,289.49,574.22Z" transform="translate(-276.9 -566.63)"/><path class="cls-1" d="M289.37,574.32l.08-.07S289.39,574.24,289.37,574.32Z" transform="translate(-276.9 -566.63)"/><path class="cls-1" d="M290.53,574.31v-.1S290.53,574.27,290.53,574.31Z" transform="translate(-276.9 -566.63)"/><path class="cls-1" d="M290.83,574.28c-.07,0-.18-.21-.28-.15v.08C290.59,574.06,290.76,574.46,290.83,574.28Z" transform="translate(-276.9 -566.63)"/><path class="cls-1" d="M292.1,575.54l-.26-.08c.05.11.11.26,0,.28C292.15,576.07,291.76,575.5,292.1,575.54Z" transform="translate(-276.9 -566.63)"/><path class="cls-1" d="M292.88,575.7c-.13,0,0,.16,0,.22C293,575.82,293,575.8,292.88,575.7Z" transform="translate(-276.9 -566.63)"/><path class="cls-1" d="M298.57,575.7V576C298.67,575.92,298.56,575.86,298.57,575.7Z" transform="translate(-276.9 -566.63)"/><polygon class="cls-1" points="22.76 7.75 22.66 7.59 22.61 7.83 22.76 7.75"/><polygon class="cls-1" points="23.5 9.58 23.42 9.61 23.71 9.52 23.5 9.58"/><path class="cls-1" d="M300.78,567.19l0,.32C300.87,567.45,301,567.1,300.78,567.19Z" transform="translate(-276.9 -566.63)"/><path class="cls-1" d="M296.41,567.51c0-.15-.16-.25-.23-.1C296.27,567.43,296.37,567.55,296.41,567.51Z" transform="translate(-276.9 -566.63)"/><polygon class="cls-1" points="10.47 6.18 10.36 6.1 10.45 6.26 10.47 6.18"/></svg>